<svg xmlns="http://www.w3.org/2000/svg" width="29.961" height="29.961" viewBox="0 0 29.961 29.961"><defs><style>.a{fill:#00a1b0;}</style></defs><g transform="translate(-147.476 -142.807)"><g transform="translate(147.476 142.807)"><path class="a" d="M162.451,159.419a13.7,13.7,0,0,0,1-2.443,14.445,14.445,0,0,1,1.122-2.7,7.592,7.592,0,0,1,2.765-2.727v-7.113a1.627,1.627,0,0,0-1.627-1.627H159.2a1.627,1.627,0,0,0-1.627,1.627v8.473H149.1a1.627,1.627,0,0,0-1.627,1.627v6.508a1.627,1.627,0,0,0,1.627,1.627h8.407A6.675,6.675,0,0,0,162.451,159.419Z" transform="translate(-147.476 -142.807)"/><path class="a" d="M226.95,204.047h-8.457A6.362,6.362,0,0,0,216.71,206a13.386,13.386,0,0,0-1.026,2.49,14.766,14.766,0,0,1-1.09,2.646,7.854,7.854,0,0,1-5.878,3.832v7.318a1.627,1.627,0,0,0,1.627,1.627h6.508a1.627,1.627,0,0,0,1.627-1.627v-8.473h8.473a1.627,1.627,0,0,0,1.627-1.627v-6.508A1.627,1.627,0,0,0,226.95,204.047Z" transform="translate(-198.616 -193.947)"/></g></g></svg>