<svg xmlns="http://www.w3.org/2000/svg" width="180" height="60" viewBox="0 0 180 60">
  <g id="Group_142" data-name="Group 142" transform="translate(-510 -21)">
    <rect id="Rectangle_15" data-name="Rectangle 15" width="180" height="60" rx="10" transform="translate(510 21)" fill="#5c38ff"/>
    <g id="Group_113" data-name="Group 113" transform="translate(-177 -446)">
      <g id="Group_110" data-name="Group 110">
        <path id="Path_69" data-name="Path 69" d="M723,514a16,16,0,1,1,11.314-4.686A15.9,15.9,0,0,1,723,514Zm0-30a14,14,0,1,0,9.9,4.1A13.905,13.905,0,0,0,723,484Z" fill="#fff"/>
      </g>
      <g id="Group_111" data-name="Group 111">
        <path id="Path_70" data-name="Path 70" d="M730,499H716a1,1,0,0,1,0-2h14a1,1,0,0,1,0,2Z" fill="#fff"/>
      </g>
      <g id="Group_112" data-name="Group 112">
        <path id="Path_71" data-name="Path 71" d="M723,506a1,1,0,0,1-1-1V491a1,1,0,0,1,2,0v14A1,1,0,0,1,723,506Z" fill="#fff"/>
      </g>
    </g>
    <text id="Approve" transform="translate(572 60)" fill="#fff" font-size="24" font-family="Roboto-Regular, Roboto"><tspan x="0" y="0">Approve</tspan></text>
  </g>
</svg>
