<svg xmlns="http://www.w3.org/2000/svg" width="24.642" height="24.642" viewBox="0 0 24.642 24.642">
  <g id="Group_150" data-name="Group 150" transform="translate(-543 -2340)">
    <g id="Group_146" data-name="Group 146" transform="translate(543 2340)">
      <g id="Group_145" data-name="Group 145">
        <g id="Group_144" data-name="Group 144">
          <path id="Path_88" data-name="Path 88" d="M555.321,2364.642a12.321,12.321,0,1,1,12.321-12.321A12.335,12.335,0,0,1,555.321,2364.642Zm0-23.1a10.781,10.781,0,1,0,10.781,10.781A10.793,10.793,0,0,0,555.321,2341.54Z" transform="translate(-543 -2340)" fill="#a0a0a0"/>
        </g>
      </g>
    </g>
    <g id="Group_149" data-name="Group 149" transform="translate(549.16 2348.47)">
      <g id="Group_147" data-name="Group 147">
        <path id="Path_89" data-name="Path 89" d="M554.85,2358.7a.769.769,0,0,1-.544-.225l-3.08-3.081a.769.769,0,0,1,0-1.089l3.08-3.08a.77.77,0,0,1,1.089,1.089l-2.536,2.536,2.536,2.536a.77.77,0,0,1-.544,1.314Z" transform="translate(-551 -2351)" fill="#a0a0a0"/>
      </g>
      <g id="Group_148" data-name="Group 148" transform="translate(0 3.08)">
        <path id="Path_90" data-name="Path 90" d="M562.551,2356.54H551.77a.77.77,0,0,1,0-1.54h10.781a.77.77,0,1,1,0,1.54Z" transform="translate(-551 -2355)" fill="#a0a0a0"/>
      </g>
    </g>
  </g>
</svg>
