<svg xmlns="http://www.w3.org/2000/svg" width="58.5" height="47.531" viewBox="0 0 58.5 47.531">
  <g id="Group_230" data-name="Group 230" transform="translate(-379 -5741)">
    <g id="Group_228" data-name="Group 228" transform="translate(379 5741)">
      <g id="Group_226" data-name="Group 226" transform="translate(0 7.313)">
        <path id="Path_137" data-name="Path 137" d="M432.016,5785.219H384.484a5.491,5.491,0,0,1-5.484-5.484v-29.25a5.491,5.491,0,0,1,5.484-5.484h9.141a1.828,1.828,0,0,1,0,3.657h-9.141a1.831,1.831,0,0,0-1.828,1.828v29.25a1.831,1.831,0,0,0,1.828,1.828h47.531a1.831,1.831,0,0,0,1.828-1.828v-29.25a1.831,1.831,0,0,0-1.828-1.828h-9.141a1.828,1.828,0,0,1,0-3.657h9.141a5.491,5.491,0,0,1,5.484,5.484v29.25A5.491,5.491,0,0,1,432.016,5785.219Z" transform="translate(-379 -5745)" fill="#cf5a92"/>
      </g>
      <g id="Group_227" data-name="Group 227" transform="translate(12.796)">
        <path id="Path_138" data-name="Path 138" d="M387.827,5751.969a1.828,1.828,0,0,1-1.634-2.644l3.651-7.312a1.821,1.821,0,0,1,1.634-1.014h21.956a1.828,1.828,0,0,1,1.636,1.014l3.645,7.312a1.828,1.828,0,1,1-3.272,1.63l-3.141-6.3H392.609l-3.144,6.3A1.83,1.83,0,0,1,387.827,5751.969Z" transform="translate(-385.999 -5740.999)" fill="#cf5a92"/>
      </g>
    </g>
    <g id="Group_229" data-name="Group 229" transform="translate(395.453 5753.797)">
      <path id="Path_139" data-name="Path 139" d="M400.8,5773.593a12.8,12.8,0,1,1,12.8-12.8A12.811,12.811,0,0,1,400.8,5773.593Zm0-21.937a9.141,9.141,0,1,0,9.141,9.14A9.151,9.151,0,0,0,400.8,5751.656Z" transform="translate(-388 -5748)" fill="#cf5a92"/>
    </g>
  </g>
</svg>
