<svg xmlns="http://www.w3.org/2000/svg" width="30.988" height="22.081" viewBox="0 0 30.988 22.081">
  <g id="Group_10" data-name="Group 10" transform="translate(-1216.423 -1032.799)">
    <g id="Group_6" data-name="Group 6" transform="translate(1219.866 1032.844)">
      <path id="Path_5" data-name="Path 5" d="M1227.621,1045.26a6.2,6.2,0,1,1,6.2-6.2A6.2,6.2,0,0,1,1227.621,1045.26Zm0-11.018a4.82,4.82,0,1,0,4.82,4.82A4.826,4.826,0,0,0,1227.621,1034.242Z" transform="translate(-1221.423 -1032.865)" fill="#555"/>
    </g>
    <g id="Group_7" data-name="Group 7" transform="translate(1216.423 1044.551)">
      <path id="Path_6" data-name="Path 6" d="M1235.016,1060.194h-17.9a.689.689,0,0,1-.689-.689v-.688c0-4.769,4.505-8.952,9.641-8.952s9.641,4.183,9.641,8.952v.688A.689.689,0,0,1,1235.016,1060.194Zm-17.216-1.377h16.527c0-4.035-3.861-7.575-8.263-7.575S1217.8,1054.782,1217.8,1058.817Z" transform="translate(-1216.423 -1049.865)" fill="#555"/>
    </g>
    <g id="Group_8" data-name="Group 8" transform="translate(1233.639 1032.799)">
      <path id="Path_7" data-name="Path 7" d="M1246.932,1043.817a5.509,5.509,0,1,1,5.509-5.509A5.515,5.515,0,0,1,1246.932,1043.817Zm0-9.641a4.132,4.132,0,1,0,4.132,4.132A4.136,4.136,0,0,0,1246.932,1034.176Z" transform="translate(-1241.423 -1032.799)" fill="#555"/>
    </g>
    <g id="Group_9" data-name="Group 9" transform="translate(1233.692 1043.174)">
      <path id="Path_8" data-name="Path 8" d="M1254.531,1056.817h-9.009a.689.689,0,0,1,0-1.377h8.32c-.067-3.314-3.256-6.2-6.885-6.2a7.2,7.2,0,0,0-4.348,1.516.689.689,0,1,1-.839-1.092,8.584,8.584,0,0,1,5.187-1.8c4.4,0,8.263,3.59,8.263,7.681v.583A.689.689,0,0,1,1254.531,1056.817Z" transform="translate(-1241.5 -1047.865)" fill="#555"/>
    </g>
  </g>
</svg>
