<svg xmlns="http://www.w3.org/2000/svg" width="24.346" height="24.334" viewBox="0 0 24.346 24.334">
  <g id="Group_5" data-name="Group 5" transform="translate(-88 -49.016)">
    <g id="Group_3" data-name="Group 3" transform="translate(90.282 59.655)">
      <path id="Path_3" data-name="Path 3" d="M109.26,76.695h-3.8a1.523,1.523,0,0,1-1.522-1.522V68.326H97.847v6.847a1.523,1.523,0,0,1-1.522,1.522h-3.8A1.523,1.523,0,0,1,91,75.173V63.761a.761.761,0,1,1,1.522,0V75.173h3.8V68.326A1.523,1.523,0,0,1,97.847,66.8h6.087a1.523,1.523,0,0,1,1.522,1.522v6.847h3.8V63.761a.761.761,0,1,1,1.522,0V75.173A1.523,1.523,0,0,1,109.26,76.695Z" transform="translate(-91 -63)" fill="#fff"/>
    </g>
    <g id="Group_4" data-name="Group 4" transform="translate(88 49.016)">
      <path id="Path_4" data-name="Path 4" d="M111.585,63.459a.76.76,0,0,1-.571-.257L100.173,50.914,89.331,63.2a.761.761,0,1,1-1.141-1.007L99.6,49.261a.786.786,0,0,1,1.141,0l11.412,12.934a.761.761,0,0,1-.571,1.264Z" transform="translate(-88 -49.015)" fill="#fff"/>
    </g>
  </g>
</svg>
