<svg xmlns="http://www.w3.org/2000/svg" width="23.288" height="28.662" viewBox="0 0 23.288 28.662">
  <g id="Group_65" data-name="Group 65" transform="translate(-382 -5449)">
    <g id="Group_54" data-name="Group 54" transform="translate(382 5449)">
      <g id="Group_52" data-name="Group 52">
        <g id="Group_47" data-name="Group 47" transform="translate(1.793)">
          <path id="Path_30" data-name="Path 30" d="M402.81,5477.662H384.9a.9.9,0,1,1,0-1.791H402.81a.9.9,0,0,0,.9-.9v-23.288a.9.9,0,0,0-.9-.9H384.9a.9.9,0,0,1,0-1.792H402.81a2.69,2.69,0,0,1,2.687,2.687v23.288A2.69,2.69,0,0,1,402.81,5477.662Z" transform="translate(-384.002 -5449)" fill="#555"/>
        </g>
        <g id="Group_48" data-name="Group 48" transform="translate(0 21.498)">
          <path id="Path_31" data-name="Path 31" d="M386.478,5474.793H382.9a.9.9,0,0,1,0-1.792h3.583a.9.9,0,0,1,0,1.792Z" transform="translate(-382 -5473.002)" fill="#555"/>
        </g>
        <g id="Group_49" data-name="Group 49" transform="translate(0 16.124)">
          <path id="Path_32" data-name="Path 32" d="M386.478,5468.793H382.9a.9.9,0,0,1,0-1.792h3.583a.9.9,0,0,1,0,1.792Z" transform="translate(-382 -5467.002)" fill="#555"/>
        </g>
        <g id="Group_50" data-name="Group 50" transform="translate(0 10.75)">
          <path id="Path_33" data-name="Path 33" d="M386.478,5462.793H382.9a.9.9,0,0,1,0-1.792h3.583a.9.9,0,0,1,0,1.792Z" transform="translate(-382 -5461.002)" fill="#555"/>
        </g>
        <g id="Group_51" data-name="Group 51" transform="translate(0 5.376)">
          <path id="Path_34" data-name="Path 34" d="M386.478,5456.793H382.9a.9.9,0,1,1,0-1.791h3.583a.9.9,0,1,1,0,1.791Z" transform="translate(-382 -5455.002)" fill="#555"/>
        </g>
      </g>
      <g id="Group_53" data-name="Group 53" transform="translate(1.793)">
        <path id="Path_35" data-name="Path 35" d="M384.9,5477.662a.9.9,0,0,1-.9-.9V5449.9a.9.9,0,0,1,1.791,0v26.871A.9.9,0,0,1,384.9,5477.662Z" transform="translate(-384.002 -5449)" fill="#555"/>
      </g>
    </g>
    <g id="Group_64" data-name="Group 64" transform="translate(389.165 5457.07)">
      <g id="Group_55" data-name="Group 55" transform="translate(2.688 1.79)">
        <rect id="Rectangle_8" data-name="Rectangle 8" width="2" height="4" rx="1" transform="translate(0.147 0.141)" fill="#555"/>
      </g>
      <g id="Group_56" data-name="Group 56" transform="translate(8.06 1.79)">
        <rect id="Rectangle_9" data-name="Rectangle 9" width="2" height="4" rx="1" transform="translate(-0.226 0.141)" fill="#555"/>
      </g>
      <g id="Group_57" data-name="Group 57" transform="translate(2.687)">
        <path id="Path_36" data-name="Path 36" d="M393.9,5461.591a.941.941,0,0,1-.167-.016.9.9,0,0,1-.713-1.047c.294-1.556,2.081-2.519,3.567-2.519h.005c1.484,0,3.267.962,3.561,2.519a.9.9,0,1,1-1.759.333,2.069,2.069,0,0,0-3.615,0A.9.9,0,0,1,393.9,5461.591Z" transform="translate(-393 -5458.01)" fill="#555"/>
      </g>
      <g id="Group_58" data-name="Group 58" transform="translate(7.165 4.475)">
        <path id="Path_37" data-name="Path 37" d="M398.894,5467.486a.9.9,0,0,1-.675-1.483,3.075,3.075,0,0,0,.675-2.024.9.9,0,1,1,1.785-.15,4.894,4.894,0,0,1-1.108,3.35A.9.9,0,0,1,398.894,5467.486Z" transform="translate(-397.999 -5463.006)" fill="#555"/>
      </g>
      <g id="Group_59" data-name="Group 59" transform="translate(2.688 4.477)">
        <path id="Path_38" data-name="Path 38" d="M394.793,5467.486a.892.892,0,0,1-.677-.308,4.895,4.895,0,0,1-1.108-3.35.9.9,0,0,1,1.786.145,3.1,3.1,0,0,0,.674,2.03.9.9,0,0,1-.675,1.483Z" transform="translate(-393.001 -5463.008)" fill="#555"/>
      </g>
      <g id="Group_62" data-name="Group 62" transform="translate(0 7.15)">
        <g id="Group_60" data-name="Group 60" transform="translate(7.164)">
          <path id="Path_39" data-name="Path 39" d="M402.477,5469.575a.893.893,0,0,1-.4-.094l-3.584-1.792a.9.9,0,0,1,.8-1.6l3.584,1.792a.9.9,0,0,1-.4,1.7Z" transform="translate(-397.999 -5465.992)" fill="#555"/>
        </g>
        <g id="Group_61" data-name="Group 61" transform="translate(0 0.014)">
          <path id="Path_40" data-name="Path 40" d="M390.9,5469.577a.9.9,0,0,1-.4-1.7l3.584-1.777a.9.9,0,0,1,.8,1.6l-3.584,1.777A.887.887,0,0,1,390.9,5469.577Z" transform="translate(-390 -5466.008)" fill="#555"/>
        </g>
      </g>
      <g id="Group_63" data-name="Group 63" transform="translate(0 8.941)">
        <path id="Path_41" data-name="Path 41" d="M400.748,5471.575h-8.957a1.793,1.793,0,0,1-1.791-1.792v-.9a.9.9,0,1,1,1.791,0v.9h8.957v-.9a.9.9,0,1,1,1.791,0v.9A1.793,1.793,0,0,1,400.748,5471.575Z" transform="translate(-390 -5467.992)" fill="#555"/>
      </g>
    </g>
  </g>
</svg>
