<svg xmlns="http://www.w3.org/2000/svg" width="28.001" height="36" viewBox="0 0 28.001 36">
  <g id="Group_106" data-name="Group 106" transform="translate(-381 -1134)">
    <g id="Group_104" data-name="Group 104">
      <g id="Group_102" data-name="Group 102">
        <path id="Path_64" data-name="Path 64" d="M407.334,1165H382.666a1.637,1.637,0,0,1-1.449-.749,1.61,1.61,0,0,1-.009-1.6l3.651-7.106a1,1,0,0,1,1.78.914L383.276,1163h23.448l-3.363-6.543a1,1,0,0,1,1.78-.914l3.651,7.106a1.61,1.61,0,0,1-.009,1.6A1.637,1.637,0,0,1,407.334,1165Z" fill="#2188e5"/>
      </g>
      <g id="Group_103" data-name="Group 103">
        <path id="Path_65" data-name="Path 65" d="M395,1170a5.006,5.006,0,0,1-5-5,1,1,0,0,1,2,0,3,3,0,0,0,6,0,1,1,0,0,1,2,0A5.007,5.007,0,0,1,395,1170Z" fill="#2188e5"/>
      </g>
      <g id="Group_115" data-name="Group 115" transform="translate(790 2304) rotate(180)">
        <path id="Path_65-2" data-name="Path 65" d="M395,1170a5.006,5.006,0,0,1-5-5,1,1,0,0,1,2,0,3,3,0,0,0,6,0,1,1,0,0,1,2,0A5.007,5.007,0,0,1,395,1170Z" fill="#2188e5"/>
      </g>
    </g>
    <g id="Group_105" data-name="Group 105">
      <path id="Path_66" data-name="Path 66" d="M404,1156.622a1,1,0,0,1-1-1V1148a8,8,0,0,0-16,0v7.624a1,1,0,0,1-2,0V1148a10,10,0,0,1,20,0v7.624A1,1,0,0,1,404,1156.622Z" fill="#2188e5"/>
    </g>
  </g>
</svg>
