<svg xmlns="http://www.w3.org/2000/svg" width="32" height="32" viewBox="0 0 32 32">
  <g id="Group_109" data-name="Group 109" transform="translate(-461 -892)">
    <g id="Group_107" data-name="Group 107">
      <path id="Path_67" data-name="Path 67" d="M473,916a12,12,0,1,1,12-12A12.013,12.013,0,0,1,473,916Zm0-22a10,10,0,1,0,10,10A10.011,10.011,0,0,0,473,894Z" fill="#333"/>
    </g>
    <g id="Group_108" data-name="Group 108">
      <path id="Path_68" data-name="Path 68" d="M492,924a1,1,0,0,1-.707-.293l-11-11a1,1,0,1,1,1.414-1.414l11,11A1,1,0,0,1,492,924Z" fill="#333"/>
    </g>
  </g>
</svg>
