<svg xmlns="http://www.w3.org/2000/svg" width="23.195" height="27.5" viewBox="0 0 23.195 27.5"><defs><style>.a,.b{fill:#555;stroke:#8b8b8b;}.a{stroke-width:0.75px;}.b{stroke-width:0.5px;}</style></defs><g transform="translate(-4.929 0.25)"><path class="a" d="M37.57,26.05H28.913a.336.336,0,0,1,0-.673H37.57a.336.336,0,0,1,0,.673Z" transform="translate(-13.673 -14.829)"/><path class="a" d="M37.57,43.773H28.913a.336.336,0,0,1,0-.673H37.57a.336.336,0,0,1,0,.673Z" transform="translate(-13.673 -25.186)"/><path class="b" d="M24.133,1.923H23.8V.416a.416.416,0,1,0-.831,0V1.923H21.514V.416a.416.416,0,1,0-.831,0V1.923H19.228V.416a.416.416,0,0,0-.831,0V1.923H16.942V.416a.416.416,0,0,0-.831,0V1.923H14.656V.416a.416.416,0,1,0-.831,0V1.923H12.37V.416a.416.416,0,1,0-.831,0V1.923H10.084V.416a.416.416,0,1,0-.831,0V1.923H8.92A3.745,3.745,0,0,0,5.179,5.664v17.6A3.745,3.745,0,0,0,8.92,27H24.133a3.745,3.745,0,0,0,3.741-3.741V5.664A3.745,3.745,0,0,0,24.133,1.923ZM27.043,23.26a2.913,2.913,0,0,1-2.909,2.909H8.92A2.913,2.913,0,0,1,6.01,23.26V5.664A2.913,2.913,0,0,1,8.92,2.754h.333V3.962a.416.416,0,1,0,.831,0V2.754h1.455V3.962a.416.416,0,1,0,.831,0V2.754h1.455V3.962a.416.416,0,1,0,.831,0V2.754h1.455V3.962a.416.416,0,1,0,.831,0V2.754H18.4V3.962a.416.416,0,1,0,.831,0V2.754h1.455V3.962a.416.416,0,1,0,.831,0V2.754h1.455V3.962a.416.416,0,1,0,.831,0V2.754h.333a2.913,2.913,0,0,1,2.909,2.909v17.6ZM12.908,9.292l-2.043,3.269a.415.415,0,0,1-.592.119l-1.695-1.2a.416.416,0,0,1,.481-.678l1.336.947,1.81-2.9a.415.415,0,1,1,.7.44Zm0,7.378-2.043,3.269a.415.415,0,0,1-.592.119l-1.695-1.2a.416.416,0,0,1,.481-.678l1.336.947,1.81-2.9a.415.415,0,1,1,.7.44Z" transform="translate(0 0)"/></g></svg>