<svg xmlns="http://www.w3.org/2000/svg" width="27" height="27" viewBox="0 0 27 27">
  <g id="Group_345" data-name="Group 345" transform="translate(-394 -5762)">
    <rect id="Rectangle_210" data-name="Rectangle 210" width="25" height="25" rx="3.066" transform="translate(395 5763)" stroke-width="2" stroke="#555" stroke-linecap="round" stroke-linejoin="round" fill="none"/>
    <g id="Group_344" data-name="Group 344" transform="translate(398.297 5766.297)">
      <path id="Path_144" data-name="Path 144" d="M408.143,5792,401,5795.846v1.622a.6.6,0,0,0,.623.577h17.436a.6.6,0,0,0,.623-.577v-1.62h0L412.538,5792" transform="translate(-401 -5779.363)" fill="none" stroke="#555" stroke-linecap="round" stroke-linejoin="round" stroke-width="2"/>
      <path id="Path_145" data-name="Path 145" d="M416.594,5781.638c2.2-1.133,2.2-5.422,2.2-5.422l0-3.607A4.358,4.358,0,0,0,414.4,5769v0a4.356,4.356,0,0,0-4.391,3.607l0,3.607s0,4.3,2.2,5.42" transform="translate(-405.056 -5769)" fill="none" stroke="#555" stroke-linecap="round" stroke-linejoin="round" stroke-width="2"/>
    </g>
  </g>
</svg>
